<mxfile host="app.diagrams.net" agent="Mozilla/5.0 (Macintosh; Intel Mac OS X 10_15_7) AppleWebKit/605.1.15 (KHTML, like Gecko) Version/18.3 Safari/605.1.15" version="28.1.2">
  <diagram name="第 1 页" id="AsR8_wi1bpKjrC80z_sh">
    <mxGraphModel dx="983" dy="574" grid="1" gridSize="10" guides="1" tooltips="1" connect="1" arrows="1" fold="1" page="1" pageScale="1" pageWidth="827" pageHeight="1169" math="0" shadow="0">
      <root>
        <mxCell id="0" />
        <mxCell id="1" parent="0" />
        <mxCell id="B0jpazfzFXSb2_P1Gp61-1" value="相似案例数据集构建" style="rounded=0;whiteSpace=wrap;html=1;" parent="1" vertex="1">
          <mxGeometry x="40" y="470" width="280" height="30" as="geometry" />
        </mxCell>
        <mxCell id="e863h8dpBGmLFu_C36_v-2" value="" style="endArrow=classic;html=1;rounded=0;exitX=0.5;exitY=1;exitDx=0;exitDy=0;entryX=0.5;entryY=0;entryDx=0;entryDy=0;" parent="1" edge="1" source="B0jpazfzFXSb2_P1Gp61-1">
          <mxGeometry width="50" height="50" relative="1" as="geometry">
            <mxPoint x="170" y="510" as="sourcePoint" />
            <mxPoint x="180" y="524.5" as="targetPoint" />
          </mxGeometry>
        </mxCell>
        <mxCell id="e863h8dpBGmLFu_C36_v-3" value="岩爆类型-等级-区域预警&lt;div&gt;（韩祝滨）&lt;/div&gt;" style="rounded=0;whiteSpace=wrap;html=1;" parent="1" vertex="1">
          <mxGeometry x="240" y="615" width="80" height="60" as="geometry" />
        </mxCell>
        <mxCell id="e863h8dpBGmLFu_C36_v-4" value="岩爆孕育机理解读&lt;div&gt;（汤怡琳）&lt;/div&gt;" style="rounded=0;whiteSpace=wrap;html=1;" parent="1" vertex="1">
          <mxGeometry x="37.5" y="615" width="80" height="60" as="geometry" />
        </mxCell>
        <mxCell id="e863h8dpBGmLFu_C36_v-9" value="系统集成与交互设计" style="rounded=0;whiteSpace=wrap;html=1;" parent="1" vertex="1">
          <mxGeometry x="40" y="695" width="280" height="30" as="geometry" />
        </mxCell>
        <mxCell id="e863h8dpBGmLFu_C36_v-23" value="现场验证" style="rounded=0;whiteSpace=wrap;html=1;" parent="1" vertex="1">
          <mxGeometry x="42.5" y="745" width="277.5" height="30" as="geometry" />
        </mxCell>
        <mxCell id="e863h8dpBGmLFu_C36_v-25" value="" style="endArrow=classic;html=1;rounded=0;" parent="1" edge="1">
          <mxGeometry width="50" height="50" relative="1" as="geometry">
            <mxPoint x="279.5" y="675" as="sourcePoint" />
            <mxPoint x="279.5" y="695" as="targetPoint" />
          </mxGeometry>
        </mxCell>
        <mxCell id="_W8AsEhyVa-Awj_ozX27-1" value="TBM径向链式岩爆数据采集（付廉杰，张文灿，常文飞）" style="rounded=0;whiteSpace=wrap;html=1;" vertex="1" parent="1">
          <mxGeometry x="40" y="300" width="40" height="145" as="geometry" />
        </mxCell>
        <mxCell id="_W8AsEhyVa-Awj_ozX27-2" value="TBM轴向链式岩爆数据采集（马涛）" style="rounded=0;whiteSpace=wrap;html=1;" vertex="1" parent="1">
          <mxGeometry x="100" y="300" width="40" height="145" as="geometry" />
        </mxCell>
        <mxCell id="_W8AsEhyVa-Awj_ozX27-3" value="应变-结构面滑移型岩爆数据采集（陈松，康富淇）" style="rounded=0;whiteSpace=wrap;html=1;" vertex="1" parent="1">
          <mxGeometry x="160" y="300" width="40" height="145" as="geometry" />
        </mxCell>
        <mxCell id="_W8AsEhyVa-Awj_ozX27-4" value="应变型岩爆数据采集（熊永润，全鹏飞）" style="rounded=0;whiteSpace=wrap;html=1;" vertex="1" parent="1">
          <mxGeometry x="220" y="300" width="40" height="145" as="geometry" />
        </mxCell>
        <mxCell id="_W8AsEhyVa-Awj_ozX27-5" value="断裂型岩爆数据采集（张文聪）" style="rounded=0;whiteSpace=wrap;html=1;" vertex="1" parent="1">
          <mxGeometry x="280" y="300" width="40" height="145" as="geometry" />
        </mxCell>
        <mxCell id="_W8AsEhyVa-Awj_ozX27-6" value="" style="endArrow=classic;html=1;rounded=0;exitX=0.5;exitY=1;exitDx=0;exitDy=0;entryX=0.071;entryY=0.033;entryDx=0;entryDy=0;entryPerimeter=0;" edge="1" parent="1" source="_W8AsEhyVa-Awj_ozX27-1" target="B0jpazfzFXSb2_P1Gp61-1">
          <mxGeometry width="50" height="50" relative="1" as="geometry">
            <mxPoint x="400" y="470" as="sourcePoint" />
            <mxPoint x="450" y="420" as="targetPoint" />
          </mxGeometry>
        </mxCell>
        <mxCell id="_W8AsEhyVa-Awj_ozX27-7" value="" style="endArrow=classic;html=1;rounded=0;exitX=0.5;exitY=1;exitDx=0;exitDy=0;entryX=0.071;entryY=0.033;entryDx=0;entryDy=0;entryPerimeter=0;" edge="1" parent="1">
          <mxGeometry width="50" height="50" relative="1" as="geometry">
            <mxPoint x="119.5" y="445" as="sourcePoint" />
            <mxPoint x="119.5" y="471" as="targetPoint" />
          </mxGeometry>
        </mxCell>
        <mxCell id="_W8AsEhyVa-Awj_ozX27-8" value="" style="endArrow=classic;html=1;rounded=0;exitX=0.5;exitY=1;exitDx=0;exitDy=0;entryX=0.071;entryY=0.033;entryDx=0;entryDy=0;entryPerimeter=0;" edge="1" parent="1">
          <mxGeometry width="50" height="50" relative="1" as="geometry">
            <mxPoint x="179.5" y="445" as="sourcePoint" />
            <mxPoint x="179.5" y="471" as="targetPoint" />
          </mxGeometry>
        </mxCell>
        <mxCell id="_W8AsEhyVa-Awj_ozX27-10" value="" style="endArrow=classic;html=1;rounded=0;exitX=0.5;exitY=1;exitDx=0;exitDy=0;entryX=0.071;entryY=0.033;entryDx=0;entryDy=0;entryPerimeter=0;" edge="1" parent="1">
          <mxGeometry width="50" height="50" relative="1" as="geometry">
            <mxPoint x="239.88" y="445" as="sourcePoint" />
            <mxPoint x="239.88" y="471" as="targetPoint" />
          </mxGeometry>
        </mxCell>
        <mxCell id="_W8AsEhyVa-Awj_ozX27-11" value="" style="endArrow=classic;html=1;rounded=0;exitX=0.5;exitY=1;exitDx=0;exitDy=0;entryX=0.071;entryY=0.033;entryDx=0;entryDy=0;entryPerimeter=0;" edge="1" parent="1">
          <mxGeometry width="50" height="50" relative="1" as="geometry">
            <mxPoint x="299.83" y="445" as="sourcePoint" />
            <mxPoint x="299.83" y="471" as="targetPoint" />
          </mxGeometry>
        </mxCell>
        <mxCell id="_W8AsEhyVa-Awj_ozX27-12" value="" style="endArrow=classic;html=1;rounded=0;" edge="1" parent="1">
          <mxGeometry width="50" height="50" relative="1" as="geometry">
            <mxPoint x="80" y="675" as="sourcePoint" />
            <mxPoint x="80" y="695" as="targetPoint" />
          </mxGeometry>
        </mxCell>
        <mxCell id="_W8AsEhyVa-Awj_ozX27-13" value="" style="endArrow=classic;html=1;rounded=0;" edge="1" parent="1">
          <mxGeometry width="50" height="50" relative="1" as="geometry">
            <mxPoint x="179.5" y="725" as="sourcePoint" />
            <mxPoint x="179.5" y="745" as="targetPoint" />
          </mxGeometry>
        </mxCell>
        <mxCell id="_W8AsEhyVa-Awj_ozX27-16" value="" style="endArrow=classic;html=1;rounded=0;" edge="1" parent="1">
          <mxGeometry width="50" height="50" relative="1" as="geometry">
            <mxPoint x="279.6" y="595" as="sourcePoint" />
            <mxPoint x="279.6" y="615" as="targetPoint" />
          </mxGeometry>
        </mxCell>
        <mxCell id="_W8AsEhyVa-Awj_ozX27-17" value="" style="endArrow=classic;html=1;rounded=0;" edge="1" parent="1">
          <mxGeometry width="50" height="50" relative="1" as="geometry">
            <mxPoint x="80.10000000000002" y="595" as="sourcePoint" />
            <mxPoint x="80.10000000000002" y="615" as="targetPoint" />
          </mxGeometry>
        </mxCell>
        <mxCell id="_W8AsEhyVa-Awj_ozX27-18" value="" style="endArrow=none;html=1;rounded=0;" edge="1" parent="1">
          <mxGeometry width="50" height="50" relative="1" as="geometry">
            <mxPoint x="80" y="595" as="sourcePoint" />
            <mxPoint x="280" y="595" as="targetPoint" />
          </mxGeometry>
        </mxCell>
        <mxCell id="_W8AsEhyVa-Awj_ozX27-20" value="" style="endArrow=none;html=1;rounded=0;exitX=0.593;exitY=1.002;exitDx=0;exitDy=0;exitPerimeter=0;" edge="1" parent="1">
          <mxGeometry width="50" height="50" relative="1" as="geometry">
            <mxPoint x="179.76499999999987" y="579.6200000000001" as="sourcePoint" />
            <mxPoint x="179.66" y="595" as="targetPoint" />
          </mxGeometry>
        </mxCell>
        <mxCell id="_W8AsEhyVa-Awj_ozX27-21" value="数据时空融合&lt;div&gt;（韩祝滨）&lt;/div&gt;" style="rhombus;whiteSpace=wrap;html=1;" vertex="1" parent="1">
          <mxGeometry x="105" y="524" width="150" height="56" as="geometry" />
        </mxCell>
      </root>
    </mxGraphModel>
  </diagram>
</mxfile>
